<mxfile host="app.diagrams.net" modified="2023-08-14T13:59:10.184Z" agent="Mozilla/5.0 (Windows NT 10.0; Win64; x64) AppleWebKit/537.36 (KHTML, like Gecko) Chrome/114.0.0.0 Safari/537.36 OPR/100.0.0.0" version="21.6.8" etag="nJMrmQ27kCJCOe8H2iuJ" type="github">
  <diagram name="PÃ¡gina-1" id="GfxBiTNdfL1sBAgkHtme">
    <mxGraphModel>
      <root>
        <mxCell id="0" />
        <mxCell id="1" parent="0" />
      </root>
    </mxGraphModel>
  </diagram>
</mxfile>
